<svg width="94" height="14" viewBox="0 0 94 14" fill="none" xmlns="http://www.w3.org/2000/svg">
<g clip-path="url(#clip0_355_18)">
<path d="M3.59393 13.4768L0 3.5752H2.20953L4.70328 10.7539L7.18786 3.5752H9.40656L5.81263 13.4768H3.59393Z" fill="black"/>
<path d="M15.1903 13.7525C14.268 13.7737 13.3566 13.549 12.5499 13.1016C11.8023 12.6758 11.1881 12.0504 10.7758 11.2954C10.3387 10.4786 10.1192 9.56291 10.1386 8.63664C10.1141 7.66019 10.3281 6.69248 10.7621 5.81742C11.1568 5.05617 11.7571 4.4209 12.4948 3.98379C13.274 3.53299 14.162 3.30467 15.0619 3.32368C15.9871 3.29381 16.8996 3.54471 17.6795 4.04338C18.4103 4.53817 18.9693 5.24779 19.2793 6.07413C19.6437 7.0607 19.7786 8.11734 19.6735 9.16381H17.4823V8.33409C17.5464 7.50256 17.3476 6.67192 16.9139 5.95953C16.7024 5.70268 16.4317 5.50094 16.1251 5.37161C15.8186 5.24227 15.4852 5.18919 15.1536 5.21691C14.7751 5.1881 14.3952 5.24906 14.0447 5.39484C13.6942 5.54061 13.3831 5.76707 13.1366 6.0558C12.6492 6.77678 12.4168 7.64004 12.4765 8.50829C12.4244 9.3371 12.6574 10.1588 13.1366 10.837C13.3703 11.1159 13.6664 11.3359 14.0008 11.4793C14.3353 11.6226 14.6988 11.6853 15.0619 11.6621C15.5558 11.6762 16.0435 11.5507 16.4693 11.3C16.8726 11.0492 17.1919 10.6837 17.3861 10.2502L19.5681 10.9104C19.2162 11.7714 18.6019 12.4997 17.8124 12.9915C17.0295 13.4915 16.1192 13.7557 15.1903 13.7525ZM11.7797 9.14089V7.47228H18.5917V9.14089H11.7797Z" fill="black"/>
<path d="M20.6279 5.30844V3.57565H27.5316V5.30844H20.6279ZM27.5316 13.4773C26.8987 13.5978 26.2549 13.6516 25.6108 13.6377C25.033 13.6342 24.4614 13.5174 23.9285 13.2939C23.4457 13.0893 23.0476 12.7252 22.8008 12.2625C22.5884 11.8558 22.4723 11.4056 22.4616 10.9469C22.4616 10.4885 22.4616 9.99797 22.4616 9.43412V0.825195H24.6619V9.30577C24.6619 9.70611 24.6619 10.0545 24.6619 10.3509C24.6604 10.6075 24.7251 10.8602 24.8499 11.0844C24.9605 11.2665 25.1149 11.4181 25.2991 11.5254C25.4832 11.6327 25.6912 11.6922 25.9042 11.6987C26.4553 11.7378 27.0091 11.7132 27.5545 11.6253L27.5316 13.4773Z" fill="black"/>
<path d="M29.6689 13.4769V3.57527H31.6309V5.9865L31.3926 5.67478C31.5096 5.3465 31.6749 5.0375 31.8831 4.75796C32.0854 4.48973 32.3356 4.26126 32.6211 4.0841C32.8716 3.9162 33.1448 3.78499 33.4325 3.69445C33.7299 3.59961 34.0378 3.54112 34.3493 3.52026C34.6554 3.49619 34.9634 3.51004 35.2661 3.56151V5.62436C34.9365 5.53415 34.5929 5.50617 34.253 5.54184C33.8891 5.56798 33.5361 5.6778 33.2216 5.86273C32.9291 6.01609 32.6739 6.23209 32.4744 6.49533C32.2792 6.75823 32.1347 7.05513 32.0481 7.3709C31.9538 7.71588 31.9075 8.0722 31.9106 8.42982V13.4723L29.6689 13.4769Z" fill="black"/>
<path d="M37.1689 2.07207V0.0458984H39.3785V2.07207H37.1689ZM37.1689 13.4773V3.57565H39.3785V13.4773H37.1689Z" fill="black"/>
<path d="M42.1084 13.4771V3.57541H44.0796V6.64675H44.3454V13.4771H42.1084ZM48.9845 13.4771V8.7096C48.9816 8.36336 48.9602 8.01754 48.9204 7.67359C48.8785 7.29514 48.778 6.92551 48.6224 6.57799C48.4716 6.23218 48.231 5.93303 47.9256 5.7116C47.5554 5.46785 47.1168 5.34898 46.6742 5.37238C46.391 5.36998 46.1092 5.41333 45.8399 5.50073C45.5578 5.59186 45.3017 5.74902 45.0926 5.95914C44.8458 6.21945 44.6622 6.53318 44.5563 6.87596C44.4069 7.35794 44.3387 7.86143 44.3546 8.36579L43.0436 7.80653C43.0328 7.01537 43.2005 6.23196 43.5341 5.51448C43.8508 4.85219 44.3481 4.29284 44.9689 3.90088C45.6756 3.4745 46.491 3.26268 47.3159 3.2912C47.9476 3.26622 48.5761 3.39193 49.1496 3.65792C49.594 3.87208 49.983 4.18582 50.2864 4.57474C50.5519 4.94831 50.7533 5.36351 50.8824 5.80328C51.0085 6.1988 51.096 6.60564 51.1436 7.01807C51.1803 7.39855 51.2032 7.71026 51.2032 7.93488V13.4771H48.9845Z" fill="black"/>
<path d="M56.3846 13.7528C55.7486 13.7749 55.1175 13.6345 54.551 13.3448C54.0794 13.0988 53.6893 12.7214 53.4279 12.2583C53.1739 11.8015 53.0428 11.2866 53.0474 10.7639C53.0397 10.3229 53.1208 9.88486 53.2857 9.47579C53.4462 9.09108 53.6979 8.75124 54.0192 8.48563C54.4004 8.17943 54.8358 7.94772 55.3027 7.8026C55.754 7.65984 56.2132 7.54352 56.678 7.4542C57.2097 7.34877 57.7919 7.2525 58.4199 7.16541C59.048 7.07831 59.7035 6.98204 60.3865 6.87661L59.598 7.33502C59.6481 6.7903 59.4837 6.24755 59.1396 5.82227C58.9225 5.64009 58.6712 5.50324 58.4003 5.41979C58.1295 5.33633 57.8447 5.30796 57.5627 5.33635C57.1133 5.33761 56.6705 5.44438 56.27 5.64807C56.0585 5.75689 55.8719 5.90841 55.722 6.09305C55.5721 6.27769 55.4621 6.49143 55.399 6.72075L53.382 6.08814C53.6013 5.28063 54.0856 4.57027 54.7572 4.07114C55.5787 3.52466 56.5545 3.25778 57.5398 3.31018C58.3358 3.29338 59.1268 3.44004 59.8639 3.74109C60.5167 4.01341 61.0468 4.5158 61.3537 5.15299C61.5269 5.48569 61.6357 5.84805 61.6746 6.22108C61.7128 6.61568 61.7311 7.01193 61.7296 7.40836V13.4777H59.7952V11.3323L60.116 11.6807C59.7358 12.3282 59.1981 12.8691 58.5529 13.2531C57.883 13.5977 57.1377 13.7695 56.3846 13.7528ZM56.843 11.9925C57.2857 12.0052 57.7253 11.9142 58.1265 11.7266C58.4514 11.5709 58.7403 11.3492 58.9746 11.0756C59.1601 10.8625 59.3047 10.617 59.4009 10.3514C59.5205 10.0423 59.5872 9.71531 59.598 9.38411C59.598 9.02196 59.598 8.724 59.598 8.49938L60.2765 8.70108L58.562 8.97612C58.1036 9.05405 57.6773 9.13198 57.3335 9.20074C57.0233 9.2596 56.7171 9.33768 56.4167 9.43453C56.1862 9.51161 55.9672 9.61955 55.7657 9.75542C55.601 9.86501 55.4618 10.0089 55.3578 10.1772C55.2595 10.3468 55.2103 10.5404 55.2156 10.7364C55.2108 10.9653 55.2747 11.1905 55.399 11.3828C55.5295 11.5844 55.7159 11.7437 55.9353 11.8412C56.2113 11.9541 56.5085 12.0057 56.8063 11.9925H56.843Z" fill="black"/>
<path d="M64.3418 13.4772V0H66.5513V13.4772H64.3418Z" fill="#21B8F9"/>
<path d="M69.4863 2.07207V0.0458984H71.6959V2.07207H69.4863ZM69.4863 13.4773V3.57565H71.6959V13.4773H69.4863Z" fill="#21B8F9"/>
<path d="M77.1223 13.4768L73.5283 3.5752H75.7379L78.2316 10.7539L80.7162 3.5752H82.9349L79.341 13.4768H77.1223Z" fill="#21B8F9"/>
<path d="M88.7206 13.7523C87.7982 13.7735 86.8869 13.5488 86.0801 13.1014C85.331 12.6778 84.7162 12.0519 84.3061 11.2952C83.8689 10.4784 83.6495 9.56272 83.6689 8.63646C83.6443 7.66 83.8583 6.69229 84.2923 5.81724C84.6842 5.05395 85.2852 4.41796 86.0251 3.9836C86.8043 3.53281 87.6922 3.30448 88.5922 3.32349C89.5196 3.28399 90.4372 3.52696 91.2235 4.02027C91.9531 4.51639 92.5118 5.22558 92.8233 6.05103C93.1856 7.03813 93.3203 8.09427 93.2176 9.14071H91.0264V8.33391C91.0264 7.25817 90.8369 6.47276 90.4579 5.97768C90.2459 5.72143 89.9752 5.52012 89.6687 5.39084C89.3623 5.26156 89.0292 5.20812 88.6976 5.23506C88.3191 5.20588 87.939 5.26667 87.5885 5.41247C87.2379 5.55827 86.9268 5.78493 86.6806 6.07395C86.1932 6.79493 85.9608 7.65819 86.0205 8.52644C85.9685 9.35525 86.2014 10.177 86.6806 10.8552C86.9143 11.1341 87.2104 11.3541 87.5449 11.4974C87.8793 11.6408 88.2428 11.7034 88.606 11.6803C89.0997 11.6938 89.5874 11.5683 90.0133 11.3182C90.4166 11.0674 90.7359 10.7018 90.9301 10.2684L93.1121 10.9285C92.7586 11.7886 92.1447 12.5164 91.3564 13.0097C90.5676 13.5058 89.6523 13.7636 88.7206 13.7523ZM85.31 9.14071V7.4721H92.1403V9.14071H85.31Z" fill="#21B8F9"/>
</g>
<defs>
<clipPath id="clip0_355_18">
<rect width="93.2511" height="13.7546" fill="white"/>
</clipPath>
</defs>
</svg>
