<svg width="18" height="20" viewBox="0 0 18 20" fill="none" xmlns="http://www.w3.org/2000/svg">
<path fill-rule="evenodd" clip-rule="evenodd" d="M8.48871 1.00855C8.78963 0.774495 9.21102 0.774495 9.51194 1.00855L17.0119 6.84188C17.2149 6.99976 17.3337 7.24252 17.3337 7.49967V16.6663C17.3337 17.3294 17.0703 17.9653 16.6014 18.4341C16.1326 18.9029 15.4967 19.1663 14.8337 19.1663H3.16699C2.50395 19.1663 1.86807 18.9029 1.39923 18.4341C0.930384 17.9653 0.666992 17.3294 0.666992 16.6663V7.49967C0.666992 7.24252 0.78572 6.99976 0.988708 6.84188L8.48871 1.00855ZM7.33366 17.4997H10.667V10.833H7.33366V17.4997ZM12.3337 17.4997V9.99967C12.3337 9.53944 11.9606 9.16634 11.5003 9.16634H6.50033C6.04009 9.16634 5.66699 9.53944 5.66699 9.99967V17.4997H3.16699C2.94598 17.4997 2.73402 17.4119 2.57774 17.2556C2.42146 17.0993 2.33366 16.8874 2.33366 16.6663V7.90724L9.00033 2.72206L15.667 7.90724V16.6663C15.667 16.8874 15.5792 17.0993 15.4229 17.2556C15.2666 17.4119 15.0547 17.4997 14.8337 17.4997H12.3337Z" fill="#103B66"/>
</svg>
